P1
# CREATOR: GIMP PNM Filter Version 1.1
8 512
0000000000000000000000000000000000000000000000000000000000000000000000
0000010100000101000000000000000000000000000000000000000000111100001111
0000111100001111000011110000111100001111000011110000000000000000000000
0000000000000011111111111111111111111111111111111100001111000011110000
1111000000000000000000000000000000000000000011110000111100001111000011
1100000000000000000000000000000000000000000000000000000000000000001111
0000111100001111000011110000000000000000000000000000000000000000111100
0011110000111100001111000011110000111100001111000011111111000011110000
1111000011110000101010100101010110101010010101011010101001010101101010
1001010101000000000000000000000000000000001010101001010101101010100101
0101101010100101010110101010010101010000000000000000000000000000000000
0000000001111000100001011110000010000000100000011111110000000000000000
0000100000111110010010000011111000001001001111100000100000000000000000
0000000000000010000000000000000000000010000000000000000000001111100100
0001000001100000100000000000000010000000000000000000000001000000100000
0010000000100000001000000001000000000000000000000100000000100000001000
0000100000001000000100000000000000000000000000000000000000000000001111
1000000000000000000000000000000000000000000000100000001000001111100000
1000000010000000000000000000000000000010101000011100000010000001110000
1010100000000000000000000000000000001000000100000010000001000000100000
0000000000000000000000000000000000111110000000000011111000000000000000
0000000000000000000001000000001000000001000000100000010000000000000000
0000000000000000010000001000000100000000100000000100000000000000000000
0000000000100000000000000000000000100000001000000100000000000000000000
0000000000000000000000000000100000001000000100000000000000000000000000
0000000000000000000000110000001100000000000000000000011100001000100100
0001010000010010001000011100000000000000000000001100000101000000010000
0001000000010000011110000000000000000000111110010000010000000100111110
0100000001111111000000000000000000111110010000010000011000000001010000
0100111110000000000000000000001100000101000010010001000100011111110000
0100000000000000000001111111010000000111111000000001010000010011111000
0000000000000000111110010000000111111001000001010000010011111000000000
0000000001111111000000010000001000000100000010000000100000000000000000
0000111110010000010011111001000001010000010011111000000000000000000011
1110010000010100000100111111000000010011111000000000000000000011111001
0000010100000101111111010000010100000100000000000000000111111001000001
0111111001000001010000010111111000000000000000000001111000100001010000
0001000000001000010001111000000000000000000111110001000010010000010100
0001010000100111110000000000000000000111111101000000011111000100000001
0000000111111100000000000000000111111101000000011111000100000001000000
0100000000000000000000000001111000100001010000000100011100100001000111
1000000000000000000100000101000001011111110100000101000001010000010000
0000000000000011111000001000000010000000100000001000001111100000000000
0000000000001000000010000000100100001000100010000111000000000000000000
0100001001000100011110000100010001000010010000010000000000000000010000
0001000000010000000100000001000000011111110000000000000000010000010110
0011010101010100100101000001010000010000000000000000011000010101000101
0010010100010101000011010000010000000000000000001111100100000101000001
0100000101000001001111100000000000000000011111100100000101000001011111
1001000000010000000000000000000000001111100100000101000001010010010100
0101001111100000000000000000011111100100000101000001011111100100010001
0000100000000000000000001111100100000000111110000000010100000100111110
0000000000000000011111110000100000001000000010000000100000001000000000
0000000000010000010100000101000001010000010100000100111110000000000000
0000010000010100000101000001001000100001010000001000000000000000000001
0000010100000101000001010010010101010100100010000000000000000000100001
0001001000001100000011000001001000100001000000000000000001000001001000
1000011100000010000000100000001000000000000000000001111111000000100000
010000001000000100000111111100000000