P1
# CREATOR: GIMP PNM Filter Version 1.1
8 512
0000000000000000000000000000000000000000000000000000000000000000111100
0011110000111100001111000000000000000000000000000000000000000011110000
1111000011110000111100000000000000000000000000000000111111111111111111
1111111111111100000000000000000000000000000000000000000000000000000000
0000000011110000111100001111000011110000111100001111000011110000111100
0011110000111100001111000011110000000011110000111100001111000011111111
0000111100001111000011110000111111111111111111111111111111111111000011
1100001111000011110000101010100101010110101010010101011010101001010101
1010101001010101000000000000000000000000000000001010101001010101101010
1001010101101010100101010110101010010101010000000000000000000000000000
0000000000000010010000100100000000000000000000000000000000000000000000
0000000001110000100010011110000010000000100000011111100000000000000000
0000100000111110001010000011111000001010001111100000100000000000000000
0000000000000100000000000000000000000100000000000000000000001111000100
0010000001000000100000000000000010000000000000000000000001000000100000
0010000000100000001000000001000000000000000000001000000001000000010000
0001000000010000001000000000000000000000000000000001000000001000000001
0000001000000100000000000000000000000000000000010000001000000100000000
1000000001000000000000000000000000000000000000111110000000000011111000
0000000000000000000000000000000000100000001000001111100000100000001000
0000000000000000000000000000000000000000001111100000000000000000000000
0000000000000000000001010000001000001111100000100000010100000000000000
0000000000000000001000000100000010000001000000100000000000000000000000
0000000001000000000000000000000001000000010000001000000000000000000000
0000000000000000000000000000100000001000000100000000000000000000000000
0000000000000000000001100000011000000000000000000000111100010001100100
1010010100100110001000111100000000000000000000011000001010000000100000
0010000000100000111110000000000000000000111100010000100000001000111100
0100000001111110000000000000000000111100010000100000110000000010010000
1000111100000000000000000000001000000110000010100001001000011111100000
1000000000000000000001111110010000000111110000000010010000100011110000
0000000000000000111100010000000111110001000010010000100011110000000000
0000000001111110000000100000010000001000000100000001000000000000000000
0000111100010000100011110001000010010000100011110000000000000000000011
1100010000100100001000111110000000100011110000000000000000000011110001
0000100100001001111110010000100100001000000000000000000111110001000010
0111110001000010010000100111110000000000000000000011110001000010010000
0001000000010000100011110000000000000000000111100001000100010000100100
0010010001000111100000000000000000000111111001000000011111000100000001
0000000111111000000000000000000111111001000000011111000100000001000000
0100000000000000000000000011110001000010010000000100111001000010001111
0000000000000000000100001001000010011111100100001001000010010000100000
0000000000000011111000001000000010000000100000001000001111100000000000
0000000000001000000010000000100100001001000010001111000000000000000000
0100010001001000011100000100100001000100010000100000000000000000010000
0001000000010000000100000001000000011111100000000000000000010000100110
0110010110100100001001000010010000100000000000000000010000100110001001
0100100100101001000110010000100000000000000000001111000100001001000010
0100001001000010001111000000000000000000011111000100001001000010011111
0001000000010000000000000000000000001111000100001001000010010100100100
1010001111000000000000000000011111000100001001000010011111000100010001
0000100000000000000000001111000100000000111100000000100100001000111100
0000000000000000111111100001000000010000000100000001000000010000000000
0000000000010000100100001001000010010000100100001000111100000000000000
0000010000100100001001000010010000100010010000011000000000000000000001
0000100100001001000010010000100101101000100100000000000000000001000010
0010010000011000000110000010010001000010000000000000000010000010010001
0000101000000100000001000000010000000000000000000001111110000001000000
100000010000001000000111111000000000